# xmcd
#
# Track frame offsets: 
#        150
#        11530
#        28400
#        43643
#        57705
#        67948
#        76673
#        87225
#        103000
#        114043
#        128073
#        143498
#        156498
#        168610
#        177228
#        192145
#
# Disc length: 2809 seconds
#
# Revision: 0
# Processed by: cddbd v1.5.2PL0 Copyright (c) Steve Scherf et al.
# Submitted via: ExactAudioCopy v1.0b3
#
DISCID=ce0af710
DTITLE=Various Artist - Dr. Demento's Country Corn
DYEAR=1995
DGENRE=Country
TTITLE0=Leroy Pullins - I'm A Nut
TTITLE1=Ray Stevens - Mississippi Squirrel Revival
TTITLE2=''Weird Al'yankovic - Achy Breaky Song
TTITLE3=Billy Edd Wheeler - Ode To The Little Brown Shack Out Back
TTITLE4=Homer and Jethro - I'm My Own Grandpaw
TTITLE5=Jerry Reed - When You're Hot, You're Hot
TTITLE6=Cledus Maggard - Virgil And The 300 Dollars Vacation
TTITLE7=Johnny Paycheck - Colorado Cool-Aid
TTITLE8=Little Jimmy Dickens - May The Bird Of Paradise Fly Up Your No
TTITLE8=se
TTITLE9=Bobby Russell - Saturday Morning Confusion
TTITLE10=Dick Feller - The Credit Card Song
TTITLE11=Tom T. Hall - I Like Beer
TTITLE12=Jim Stafford - Wildwood Weed
TTITLE13=Pinkard and Bowden - Elvis Was A Narc]
TTITLE14=Ray Stevens - The Streak
TTITLE15=Jerry Reed - Another Puff
EXTD=
EXTT0=
EXTT1=
EXTT2=
EXTT3=
EXTT4=
EXTT5=
EXTT6=
EXTT7=
EXTT8=
EXTT9=
EXTT10=
EXTT11=
EXTT12=
EXTT13=
EXTT14=
EXTT15=
PLAYORDER=
